# xmcd
#
# Track frame offsets: 
#        150
#        19506
#        31807
#        41250
#        51232
#        71195
#        89960
#        113985
#        125019
#        158871
#        169213
#        183331
#        194428
#        206798
#        219310
#        234962
#
# Disc length: 3249 seconds
#
# Revision: 0
# Processed by: cddbd v1.5.2PL0 Copyright (c) Steve Scherf et al.
# Submitted via: ExactAudioCopy v0.99pb4
#
DISCID=e60caf10
DTITLE=Like A Sex Machine - James Brown
DYEAR=2008
DGENRE=Soul
TTITLE0=Get Up I Feel Like Being Like A Sex Machine
TTITLE1=(I Got You) I Feel Good
TTITLE2=Papa's Got A Brand New Bag
TTITLE3=Get Up Offa That Thing
TTITLE4=You Can't Keep A Good Man Down
TTITLE5=Stay With Me
TTITLE6=Mashed Potatoes (Mashed Potato Popcorn)
TTITLE7=Bewildered
TTITLE8=Funky Men
TTITLE9=Good Good Lovin'
TTITLE10=Baby You're Right
TTITLE11=Spinning Wheel
TTITLE12=Signed, Sealed, Delivered, I'm Yours
TTITLE13=Stagger Lee
TTITLE14=Tennessee Waltz
TTITLE15=Mona Lisa
EXTD=
EXTT0=
EXTT1=
EXTT2=
EXTT3=
EXTT4=
EXTT5=
EXTT6=
EXTT7=
EXTT8=
EXTT9=
EXTT10=
EXTT11=
EXTT12=
EXTT13=
EXTT14=
EXTT15=
PLAYORDER=
